<svg width="359" height="190" viewBox="0 0 359 190" fill="none" xmlns="http://www.w3.org/2000/svg">
    <path d="M102.88 96.944C102.88 89.264 104.704 83.504 108.352 79.664C112.064 75.76 116.96 73.808 123.04 73.808H124V82.928H123.04C119.584 82.928 116.928 84.08 115.072 86.384C113.216 88.688 112.288 92.208 112.288 96.944V122H102.88V96.944ZM149.688 73.232C156.088 73.232 161.208 75.216 165.048 79.184C168.888 83.088 170.808 88.944 170.808 96.752V122H161.4V96.752C161.4 91.952 160.376 88.368 158.328 86C156.344 83.568 153.464 82.352 149.688 82.352C145.912 82.352 143 83.536 140.952 85.904C138.968 88.272 137.976 91.824 137.976 96.56V122H128.568V54.8H137.976V78.32C139.448 76.464 141.144 75.152 143.064 74.384C144.984 73.616 147.192 73.232 149.688 73.232ZM200.856 73.232C205.336 73.232 209.464 74.352 213.24 76.592C217.08 78.768 220.088 81.776 222.264 85.616C224.504 89.392 225.624 93.52 225.624 98C225.624 102.48 224.504 106.64 222.264 110.48C220.088 114.256 217.08 117.264 213.24 119.504C209.464 121.68 205.336 122.768 200.856 122.768C196.376 122.768 192.216 121.68 188.376 119.504C184.6 117.264 181.592 114.256 179.352 110.48C177.176 106.64 176.088 102.48 176.088 98C176.088 93.52 177.176 89.392 179.352 85.616C181.592 81.776 184.6 78.768 188.376 76.592C192.216 74.352 196.376 73.232 200.856 73.232ZM200.952 82.352C198.072 82.352 195.448 83.056 193.08 84.464C190.712 85.808 188.856 87.696 187.512 90.128C186.168 92.496 185.496 95.12 185.496 98C185.496 100.88 186.168 103.536 187.512 105.968C188.92 108.336 190.776 110.224 193.08 111.632C195.448 112.976 198.072 113.648 200.952 113.648C203.832 113.648 206.424 112.976 208.728 111.632C211.032 110.224 212.856 108.336 214.2 105.968C215.544 103.536 216.216 100.88 216.216 98C216.216 95.12 215.544 92.496 214.2 90.128C212.92 87.696 211.096 85.808 208.728 84.464C206.424 83.056 203.832 82.352 200.952 82.352ZM248.799 122.768C245.407 122.768 242.271 122.192 239.391 121.04C236.575 119.824 234.303 118.064 232.575 115.76C230.847 113.456 229.983 110.736 229.983 107.6H239.007C239.007 109.648 239.935 111.28 241.791 112.496C243.711 113.712 246.111 114.32 248.991 114.32C251.935 114.32 254.207 113.744 255.807 112.592C257.407 111.44 258.207 109.904 258.207 107.984C258.207 105.872 257.311 104.368 255.519 103.472C253.727 102.576 250.943 101.712 247.167 100.88C243.711 100.112 240.895 99.344 238.719 98.576C236.543 97.744 234.655 96.4 233.055 94.544C231.519 92.624 230.751 90.032 230.751 86.768C230.751 84.144 231.519 81.808 233.055 79.76C234.655 77.712 236.799 76.112 239.487 74.96C242.239 73.808 245.247 73.232 248.511 73.232C253.631 73.232 257.823 74.512 261.087 77.072C264.415 79.632 266.079 83.152 266.079 87.632H257.055C257.055 85.84 256.191 84.4 254.463 83.312C252.799 82.16 250.751 81.584 248.319 81.584C245.951 81.584 243.999 82.128 242.463 83.216C240.927 84.304 240.159 85.712 240.159 87.44C240.159 89.232 240.991 90.544 242.655 91.376C244.319 92.144 246.943 92.944 250.527 93.776C254.047 94.544 256.959 95.344 259.263 96.176C261.567 97.008 263.519 98.416 265.119 100.4C266.783 102.32 267.615 104.976 267.615 108.368C267.615 113.04 265.855 116.624 262.335 119.12C258.879 121.552 254.367 122.768 248.799 122.768ZM305.212 74V99.248C305.212 104.048 304.188 107.664 302.14 110.096C300.156 112.464 297.276 113.648 293.5 113.648C289.724 113.648 286.812 112.464 284.764 110.096C282.78 107.664 281.788 104.048 281.788 99.248V74H272.38V99.248C272.38 107.056 274.3 112.944 278.14 116.912C281.98 120.816 287.1 122.768 293.5 122.768C299.9 122.768 305.02 120.816 308.86 116.912C312.7 112.944 314.62 107.056 314.62 99.248V74H305.212ZM338.236 122.768C334.844 122.768 331.708 122.192 328.828 121.04C326.012 119.824 323.74 118.064 322.012 115.76C320.284 113.456 319.42 110.736 319.42 107.6H328.444C328.444 109.648 329.372 111.28 331.228 112.496C333.148 113.712 335.548 114.32 338.428 114.32C341.372 114.32 343.644 113.744 345.244 112.592C346.844 111.44 347.644 109.904 347.644 107.984C347.644 105.872 346.748 104.368 344.956 103.472C343.164 102.576 340.38 101.712 336.604 100.88C333.148 100.112 330.332 99.344 328.156 98.576C325.98 97.744 324.092 96.4 322.492 94.544C320.956 92.624 320.188 90.032 320.188 86.768C320.188 84.144 320.956 81.808 322.492 79.76C324.092 77.712 326.236 76.112 328.924 74.96C331.676 73.808 334.684 73.232 337.948 73.232C343.068 73.232 347.26 74.512 350.524 77.072C353.852 79.632 355.516 83.152 355.516 87.632H346.492C346.492 85.84 345.628 84.4 343.9 83.312C342.236 82.16 340.188 81.584 337.756 81.584C335.388 81.584 333.436 82.128 331.9 83.216C330.364 84.304 329.596 85.712 329.596 87.44C329.596 89.232 330.428 90.544 332.092 91.376C333.756 92.144 336.38 92.944 339.964 93.776C343.484 94.544 346.396 95.344 348.7 96.176C351.004 97.008 352.956 98.416 354.556 100.4C356.22 102.32 357.052 104.976 357.052 108.368C357.052 113.04 355.292 116.624 351.772 119.12C348.316 121.552 343.804 122.768 338.236 122.768Z"
          fill="white"/>
    <path d="M31.3397 81C35.1887 74.3333 37.1132 71 40 71C42.8868 71 44.8113 74.3333 48.6603 81L65.9808 111C69.8298 117.667 71.7543 121 70.3109 123.5C68.8675 126 65.0185 126 57.3205 126H22.6795C14.9815 126 11.1325 126 9.68911 123.5C8.24573 121 10.1702 117.667 14.0192 111L31.3397 81Z"
          fill="#EB3637" fill-opacity="0.8"/>
    <path d="M47.7865 71.4744C51.647 64.6184 53.5773 61.1905 56.5 61.1905C59.4227 61.1905 61.353 64.6184 65.2135 71.4744L82.3142 101.843C86.0506 108.479 87.9187 111.797 86.471 114.273C85.0232 116.75 81.2157 116.75 73.6007 116.75H39.3993C31.7843 116.75 27.9768 116.75 26.529 114.273C25.0813 111.797 26.9495 108.479 30.6858 101.843L47.7865 71.4744Z"
          fill="#EB3637" fill-opacity="0.8"/>
</svg>
