<svg width="369" height="190" viewBox="0 0 369 190" fill="none" xmlns="http://www.w3.org/2000/svg">
    <path d="M112.88 96.944C112.88 89.264 114.704 83.504 118.352 79.664C122.064 75.76 126.96 73.808 133.04 73.808H134V82.928H133.04C129.584 82.928 126.928 84.08 125.072 86.384C123.216 88.688 122.288 92.208 122.288 96.944V122H112.88V96.944ZM159.688 73.232C166.088 73.232 171.208 75.216 175.048 79.184C178.888 83.088 180.808 88.944 180.808 96.752V122H171.4V96.752C171.4 91.952 170.376 88.368 168.328 86C166.344 83.568 163.464 82.352 159.688 82.352C155.912 82.352 153 83.536 150.952 85.904C148.968 88.272 147.976 91.824 147.976 96.56V122H138.568V54.8H147.976V78.32C149.448 76.464 151.144 75.152 153.064 74.384C154.984 73.616 157.192 73.232 159.688 73.232ZM210.856 73.232C215.336 73.232 219.464 74.352 223.24 76.592C227.08 78.768 230.088 81.776 232.264 85.616C234.504 89.392 235.624 93.52 235.624 98C235.624 102.48 234.504 106.64 232.264 110.48C230.088 114.256 227.08 117.264 223.24 119.504C219.464 121.68 215.336 122.768 210.856 122.768C206.376 122.768 202.216 121.68 198.376 119.504C194.6 117.264 191.592 114.256 189.352 110.48C187.176 106.64 186.088 102.48 186.088 98C186.088 93.52 187.176 89.392 189.352 85.616C191.592 81.776 194.6 78.768 198.376 76.592C202.216 74.352 206.376 73.232 210.856 73.232ZM210.952 82.352C208.072 82.352 205.448 83.056 203.08 84.464C200.712 85.808 198.856 87.696 197.512 90.128C196.168 92.496 195.496 95.12 195.496 98C195.496 100.88 196.168 103.536 197.512 105.968C198.92 108.336 200.776 110.224 203.08 111.632C205.448 112.976 208.072 113.648 210.952 113.648C213.832 113.648 216.424 112.976 218.728 111.632C221.032 110.224 222.856 108.336 224.2 105.968C225.544 103.536 226.216 100.88 226.216 98C226.216 95.12 225.544 92.496 224.2 90.128C222.92 87.696 221.096 85.808 218.728 84.464C216.424 83.056 213.832 82.352 210.952 82.352ZM258.799 122.768C255.407 122.768 252.271 122.192 249.391 121.04C246.575 119.824 244.303 118.064 242.575 115.76C240.847 113.456 239.983 110.736 239.983 107.6H249.007C249.007 109.648 249.935 111.28 251.791 112.496C253.711 113.712 256.111 114.32 258.991 114.32C261.935 114.32 264.207 113.744 265.807 112.592C267.407 111.44 268.207 109.904 268.207 107.984C268.207 105.872 267.311 104.368 265.519 103.472C263.727 102.576 260.943 101.712 257.167 100.88C253.711 100.112 250.895 99.344 248.719 98.576C246.543 97.744 244.655 96.4 243.055 94.544C241.519 92.624 240.751 90.032 240.751 86.768C240.751 84.144 241.519 81.808 243.055 79.76C244.655 77.712 246.799 76.112 249.487 74.96C252.239 73.808 255.247 73.232 258.511 73.232C263.631 73.232 267.823 74.512 271.087 77.072C274.415 79.632 276.079 83.152 276.079 87.632H267.055C267.055 85.84 266.191 84.4 264.463 83.312C262.799 82.16 260.751 81.584 258.319 81.584C255.951 81.584 253.999 82.128 252.463 83.216C250.927 84.304 250.159 85.712 250.159 87.44C250.159 89.232 250.991 90.544 252.655 91.376C254.319 92.144 256.943 92.944 260.527 93.776C264.047 94.544 266.959 95.344 269.263 96.176C271.567 97.008 273.519 98.416 275.119 100.4C276.783 102.32 277.615 104.976 277.615 108.368C277.615 113.04 275.855 116.624 272.335 119.12C268.879 121.552 264.367 122.768 258.799 122.768ZM315.212 74V99.248C315.212 104.048 314.188 107.664 312.14 110.096C310.156 112.464 307.276 113.648 303.5 113.648C299.724 113.648 296.812 112.464 294.764 110.096C292.78 107.664 291.788 104.048 291.788 99.248V74H282.38V99.248C282.38 107.056 284.3 112.944 288.14 116.912C291.98 120.816 297.1 122.768 303.5 122.768C309.9 122.768 315.02 120.816 318.86 116.912C322.7 112.944 324.62 107.056 324.62 99.248V74H315.212ZM348.236 122.768C344.844 122.768 341.708 122.192 338.828 121.04C336.012 119.824 333.74 118.064 332.012 115.76C330.284 113.456 329.42 110.736 329.42 107.6H338.444C338.444 109.648 339.372 111.28 341.228 112.496C343.148 113.712 345.548 114.32 348.428 114.32C351.372 114.32 353.644 113.744 355.244 112.592C356.844 111.44 357.644 109.904 357.644 107.984C357.644 105.872 356.748 104.368 354.956 103.472C353.164 102.576 350.38 101.712 346.604 100.88C343.148 100.112 340.332 99.344 338.156 98.576C335.98 97.744 334.092 96.4 332.492 94.544C330.956 92.624 330.188 90.032 330.188 86.768C330.188 84.144 330.956 81.808 332.492 79.76C334.092 77.712 336.236 76.112 338.924 74.96C341.676 73.808 344.684 73.232 347.948 73.232C353.068 73.232 357.26 74.512 360.524 77.072C363.852 79.632 365.516 83.152 365.516 87.632H356.492C356.492 85.84 355.628 84.4 353.9 83.312C352.236 82.16 350.188 81.584 347.756 81.584C345.388 81.584 343.436 82.128 341.9 83.216C340.364 84.304 339.596 85.712 339.596 87.44C339.596 89.232 340.428 90.544 342.092 91.376C343.756 92.144 346.38 92.944 349.964 93.776C353.484 94.544 356.396 95.344 358.7 96.176C361.004 97.008 362.956 98.416 364.556 100.4C366.22 102.32 367.052 104.976 367.052 108.368C367.052 113.04 365.292 116.624 361.772 119.12C358.316 121.552 353.804 122.768 348.236 122.768Z"
          fill="white"/>
    <path d="M33.504 77.9153C37.353 71.2486 39.2775 67.9153 42.1643 67.9153C45.051 67.9153 46.9755 71.2486 50.8245 77.9153L70.0194 111.162C73.8684 117.828 75.7929 121.162 74.3495 123.662C72.9061 126.162 69.0571 126.162 61.3591 126.162H22.9694C15.2714 126.162 11.4224 126.162 9.97907 123.662C8.53569 121.162 10.4602 117.828 14.3092 111.162L33.504 77.9153Z"
          fill="#EB3637"/>
    <path d="M41.3722 116.542C33.6742 116.542 29.8252 116.542 28.3819 114.042C26.9385 111.542 28.863 108.209 32.712 101.542L51.843 68.4062C55.692 61.7395 57.6165 58.4062 60.5032 58.4062C63.39 58.4062 65.3145 61.7395 69.1635 68.4062L88.2945 101.542C92.1435 108.209 94.068 111.542 92.6246 114.042C91.1812 116.542 87.3322 116.542 79.6342 116.542L41.3722 116.542Z"
          fill="#EB3637" fill-opacity="0.8"/>
</svg>
